<?xml version="1.0" encoding="utf-8"?>
<!-- Generator: Adobe Illustrator 21.0.0, SVG Export Plug-In . SVG Version: 6.00 Build 0)  -->
<svg version="1.1" id="Layer_1" xmlns="http://www.w3.org/2000/svg" xmlns:xlink="http://www.w3.org/1999/xlink" x="0px" y="0px"
	 viewBox="0 0 121.9 121.9" style="enable-background:new 0 0 121.9 121.9;" xml:space="preserve">
<g id="Large">
	<g>
		<g>
			<path d="M5.4,81.9c-1,0-2-0.6-2.3-1.7C1,74,0,67.5,0,60.9c0-5.9,0.8-11.6,2.5-17.2c0.4-1.3,1.7-2,3-1.7c1.3,0.4,2,1.7,1.7,3
				c-1.5,5.1-2.3,10.4-2.3,15.8c0,6.1,1,12,2.9,17.7c0.4,1.3-0.3,2.7-1.5,3.1C5.9,81.9,5.7,81.9,5.4,81.9z"/>
		</g>
		<g>
			<path d="M8.3,37.8c-0.4,0-0.7-0.1-1.1-0.2c-1.2-0.6-1.7-2-1.1-3.3C16.3,13.4,37,0.3,60.3,0c0,0,0,0,0,0c1.3,0,2.4,1.1,2.4,2.4
				c0,1.3-1.1,2.4-2.4,2.5C39,5.1,19.9,17.2,10.5,36.4C10.1,37.3,9.2,37.8,8.3,37.8z"/>
		</g>
		<g>
			<path d="M119.5,61.7c-1.3,0-2.4-1-2.4-2.4c-0.8-27-20.7-49.6-47.4-53.8c-1.3-0.2-2.2-1.5-2-2.8c0.2-1.3,1.4-2.2,2.8-2
				c29,4.5,50.7,29.1,51.5,58.5C121.9,60.6,120.9,61.7,119.5,61.7C119.5,61.7,119.5,61.7,119.5,61.7z"/>
		</g>
		<g>
			<path d="M54.1,121.5c-0.3,0-0.7-0.1-1-0.2c-1.2-0.6-1.7-2-1.2-3.2c1.2-2.5,2.3-5.2,3.3-7.9c0.5-1.3,1.9-1.9,3.1-1.5
				c1.3,0.5,1.9,1.9,1.5,3.1c-1,2.9-2.2,5.7-3.4,8.3C55.9,121,55.1,121.5,54.1,121.5z"/>
		</g>
		<g>
			<path d="M60.4,104c-0.2,0-0.4,0-0.6-0.1c-1.3-0.3-2.1-1.7-1.8-3c0.6-2.5,1.1-5,1.5-7.4c2.7-16.8-0.9-31.9-0.9-32
				c-0.3-1.3,0.5-2.6,1.8-3c1.3-0.3,2.6,0.5,2.9,1.8c0.2,0.6,3.9,16.1,1,34c-0.4,2.6-1,5.2-1.6,7.8C62.4,103.3,61.4,104,60.4,104z"
				/>
		</g>
		<g>
			<path d="M64.7,121.9c-0.3,0-0.6-0.1-0.9-0.2c-1.3-0.5-1.9-1.9-1.4-3.2c1.8-4.5,5-13.7,6.8-25c0.2-1,0.3-2.1,0.4-3.2
				c0.2-1.3,1.4-2.3,2.7-2.1c1.3,0.2,2.3,1.4,2.1,2.7c-0.1,1.2-0.3,2.3-0.5,3.4c-1.9,11.8-5.3,21.3-7.1,26
				C66.6,121.3,65.7,121.9,64.7,121.9z"/>
		</g>
		<g>
			<path d="M44.1,119.4c-0.4,0-0.7-0.1-1.1-0.3c-1.2-0.6-1.7-2.1-1.1-3.3c2.5-5,5.9-12.9,7.5-22.3c1.6-9.3,1.4-19.9-0.5-30.5
				c-0.1-0.7-0.2-1.4-0.2-2.2c0-6.7,5.5-12.2,12.2-12.2c5.7,0,10.6,3.9,11.9,9.4c0.1,0.4,2.3,10.3,2.3,22.7c0,1.3-1.1,2.4-2.4,2.4
				c0,0,0,0,0,0c-1.3,0-2.4-1.1-2.4-2.4c0-11.9-2.2-21.5-2.2-21.6c-0.8-3.3-3.7-5.6-7.1-5.6c-4,0-7.3,3.3-7.3,7.3
				c0,0.4,0,0.9,0.1,1.3c2.1,11.2,2.2,22.3,0.5,32.2c-1.7,9.9-5.3,18.3-8,23.6C45.8,118.9,45,119.4,44.1,119.4z"/>
		</g>
		<g>
			<path d="M111.2,93.4c0,0-0.1,0-0.1,0c-1.3-0.1-2.4-1.2-2.3-2.6c0.2-4,0.3-8.1,0.2-12.3c0-1.3,1-2.5,2.4-2.5c0,0,0,0,0,0
				c1.3,0,2.4,1.1,2.4,2.4c0.1,4.3,0,8.5-0.2,12.6C113.6,92.4,112.5,93.4,111.2,93.4z"/>
		</g>
		<g>
			<path d="M111,71.1c-1.3,0-2.3-1-2.4-2.3c-0.6-8.5-1.6-14.1-1.7-14.2l0-0.1c-3.2-22.8-22.9-40-45.9-40c-6.3,0-12.4,1.2-18.2,3.7
				c-1.2,0.5-2.7,0-3.2-1.3c-0.5-1.2,0-2.7,1.3-3.2c6.4-2.7,13.1-4.1,20.1-4.1c25.4,0,47.2,19,50.8,44.1c0.1,0.6,1.1,6.2,1.7,14.7
				c0.1,1.3-0.9,2.5-2.3,2.6C111.1,71.1,111,71.1,111,71.1z"/>
		</g>
		<g>
			<path d="M12,95.5c-0.3,0-0.6-0.1-0.9-0.2c-1.3-0.5-1.9-1.9-1.4-3.2c0.6-1.5,1-2.9,1.4-4.4c1.3-5.6,0.2-13.8-0.6-18.2
				c-0.5-2.8-0.7-5.7-0.7-8.6c0-16.9,8.3-32.6,22.2-42.2c1.1-0.8,2.6-0.5,3.4,0.6c0.8,1.1,0.5,2.6-0.6,3.4
				c-12.6,8.7-20.1,22.9-20.1,38.2c0,2.6,0.2,5.2,0.6,7.7c0.9,4.7,2.1,13.7,0.6,20.2c-0.4,1.7-0.9,3.4-1.6,5.1
				C13.9,94.9,13,95.5,12,95.5z"/>
		</g>
		<g>
			<path d="M18.8,104c-0.4,0-0.7-0.1-1.1-0.2c-1.2-0.6-1.7-2-1.1-3.3c1.9-3.8,3.2-7.7,3.9-11.6c1.2-6.3,1-13.4-0.5-21.6l0-0.1
				c-0.3-2.1-0.5-4.2-0.5-6.3c0-22.9,18.6-41.4,41.4-41.4c3.5,0,7,0.4,10.3,1.3c1.3,0.3,2.1,1.7,1.8,3c-0.3,1.3-1.7,2.1-3,1.8
				c-3-0.8-6-1.1-9.1-1.1c-20.2,0-36.6,16.4-36.6,36.6c0,1.9,0.1,3.7,0.4,5.5c1.6,8.8,1.8,16.5,0.5,23.3c-0.8,4.3-2.2,8.6-4.3,12.8
				C20.6,103.5,19.7,104,18.8,104z"/>
		</g>
		<g>
			<path d="M99.8,107.1c-0.1,0-0.3,0-0.4,0c-1.3-0.2-2.2-1.5-2-2.8c0.3-2,0.7-4.1,0.9-6.2c2.8-21.8-1.2-42.3-1.2-42.5l0-0.1
				c-1.7-11.2-8.6-21.1-18.6-26.6c-1.2-0.6-1.6-2.1-1-3.3c0.6-1.2,2.1-1.6,3.3-1C92.1,30.8,100,42,101.9,54.7
				c0.3,1.5,4.1,21.7,1.3,44c-0.3,2.1-0.6,4.3-0.9,6.4C102,106.2,101,107.1,99.8,107.1z"/>
		</g>
		<g>
			<path d="M87.8,115.3c-0.2,0-0.4,0-0.6-0.1c-1.3-0.3-2.1-1.7-1.7-3c1.8-6.8,3-13.7,3.7-20.4c1.4-14.3-0.3-27.7-1.9-36.4
				c-0.2-1-0.5-2.1-0.8-3.1c-0.4-1.3,0.3-2.7,1.5-3.1c1.3-0.4,2.7,0.3,3.1,1.5c0.4,1.2,0.7,2.4,1,3.7c1.7,9,3.5,22.9,2,37.8
				c-0.7,7-2,14.1-3.8,21.2C89.9,114.6,88.9,115.3,87.8,115.3z"/>
		</g>
		<g>
			<path d="M33.1,89c-0.1,0-0.2,0-0.3,0c-1.3-0.1-2.3-1.3-2.2-2.7c1.1-10.6-0.8-19-0.8-19.1l0-0.1c-0.4-2-0.6-4.1-0.6-6.2
				c0-17.5,14.2-31.7,31.7-31.7c9.8,0,19,4.5,25,12.2c0.8,1.1,0.6,2.6-0.4,3.4c-1.1,0.8-2.6,0.6-3.4-0.4
				C77,37.9,69.3,34.1,60.9,34.1c-14.8,0-26.8,12-26.8,26.8c0,1.7,0.2,3.5,0.5,5.2c0.2,0.8,2.1,9.6,0.9,20.7
				C35.4,88.1,34.3,89,33.1,89z"/>
		</g>
		<g>
			<path d="M26.5,110.7c-0.4,0-0.8-0.1-1.1-0.3c-1.2-0.6-1.7-2.1-1.1-3.3c2-3.9,3.5-7.8,4.6-11.7c0.4-1.3,1.7-2,3-1.7
				c1.3,0.4,2.1,1.7,1.7,3c-1.2,4.2-2.9,8.4-5,12.6C28.2,110.2,27.3,110.7,26.5,110.7z"/>
		</g>
		<g>
			<path d="M76.2,119.9c-0.3,0-0.5,0-0.8-0.1c-1.3-0.4-2-1.8-1.5-3.1c1.9-5.6,4.4-14.4,5.5-24.7c1.7-15.5-0.6-29.4-1.7-34.6
				C76,49.6,69,43.9,60.9,43.9c-2,0-4,0.3-5.9,1c-1.3,0.5-2.7-0.2-3.1-1.5c-0.5-1.3,0.2-2.7,1.5-3.1c2.4-0.9,5-1.3,7.5-1.3
				c10.4,0,19.4,7.3,21.5,17.4c1.1,5.5,3.6,19.9,1.8,36.1c-1.2,10.7-3.8,19.9-5.8,25.7C78.1,119.3,77.2,119.9,76.2,119.9z"/>
		</g>
		<g>
			<path d="M35,115.9c-0.4,0-0.8-0.1-1.1-0.3c-1.2-0.6-1.7-2.1-1-3.3c3.6-6.8,5.9-13.5,6.9-20c1.3-8.5,1.2-17.8-0.4-27.4
				c-0.2-1.2-0.3-2.5-0.3-3.9c0-5.3,1.9-10.5,5.4-14.5c0.9-1,2.4-1.1,3.4-0.2c1,0.9,1.1,2.4,0.2,3.4c-2.7,3.1-4.2,7.1-4.2,11.2
				c0,1.1,0.1,2.1,0.3,3.1c1.7,10.2,1.9,20,0.4,29c-1.1,7-3.6,14.3-7.4,21.5C36.7,115.4,35.9,115.9,35,115.9z"/>
		</g>
	</g>
</g>
</svg>
